<svg width="19" height="20" viewBox="0 0 19 20" fill="none" xmlns="http://www.w3.org/2000/svg">
<path fill-rule="evenodd" clip-rule="evenodd" d="M9.15099 0.0241856C9.0218 0.0466301 8.82518 0.101373 8.7141 0.145851C8.60302 0.19033 6.98596 1.05814 5.12065 2.0743C1.40868 4.09645 1.32086 4.15298 1.02338 4.71108C0.730688 5.26028 0.741135 5.06371 0.741135 10.012C0.741135 14.9603 0.730688 14.7637 1.02338 15.3129C1.32095 15.8713 1.40973 15.9284 5.10135 17.9368C6.95608 18.9459 8.57619 19.8175 8.70164 19.8737C9.04994 20.0298 9.82757 20.0438 10.2157 19.9011C10.3709 19.844 12.0223 18.9659 13.8855 17.9497C17.5926 15.9278 17.6783 15.8726 17.9766 15.3129C18.2693 14.7637 18.2588 14.9603 18.2588 10.012C18.2588 5.06371 18.2693 5.26028 17.9766 4.71108C17.6783 4.15142 17.5926 4.09623 13.8856 2.0743C12.0225 1.05814 10.3711 0.182529 10.2158 0.128471C9.87291 0.00917692 9.46663 -0.0306028 9.15099 0.0241856ZM8.86131 7.16332C7.79538 7.39224 6.87337 8.32273 6.64875 9.39615C6.21536 11.4676 8.04441 13.2966 10.1158 12.8632C11.4261 12.5891 12.418 11.3606 12.418 10.012C12.418 8.16042 10.6842 6.77182 8.86131 7.16332Z" fill="#B1B6C6"/>
</svg>
