<svg width="20" height="20" viewBox="0 0 20 20" fill="none" xmlns="http://www.w3.org/2000/svg">
<path d="M10 0C15.5229 0 20 4.47714 20 10C20 15.5229 15.5229 20 10 20C4.47714 20 0 15.5229 0 10C0 4.47714 4.47714 0 10 0ZM10 2.14286C5.66071 2.14286 2.14286 5.66071 2.14286 10C2.14286 14.3393 5.66071 17.8571 10 17.8571C14.3393 17.8571 17.8571 14.3393 17.8571 10C17.8571 5.66071 14.3393 2.14286 10 2.14286ZM10 12.8571C10.1902 12.8528 10.3794 12.8866 10.5564 12.9564C10.7335 13.0262 10.8948 13.1307 11.0308 13.2637C11.1669 13.3967 11.2751 13.5556 11.3489 13.731C11.4228 13.9063 11.4608 14.0947 11.4609 14.285C11.4609 14.4753 11.4229 14.6637 11.3492 14.8391C11.2754 15.0145 11.1674 15.1734 11.0313 15.3065C10.8953 15.4396 10.7341 15.5441 10.5571 15.614C10.3801 15.6839 10.191 15.7178 10.0007 15.7136C9.62746 15.7053 9.27226 15.5513 9.01116 15.2844C8.75007 15.0175 8.60382 14.6591 8.60373 14.2857C8.60363 13.9124 8.7497 13.5538 9.01066 13.2868C9.27163 13.0198 9.62675 12.8656 10 12.8571ZM10 3.86C10.3137 3.86001 10.6159 3.97798 10.8467 4.19049C11.0775 4.40299 11.2199 4.6945 11.2457 5.00714L11.25 5.11V10.9229C11.2499 11.2454 11.1251 11.5553 10.9017 11.788C10.6783 12.0206 10.3737 12.158 10.0515 12.1712C9.72924 12.1845 9.41433 12.0727 9.17259 11.8593C8.93085 11.6458 8.78097 11.3471 8.75429 11.0257L8.75 10.9229V5.11C8.75 4.42 9.31 3.86 10 3.86Z" fill="#B1B6C6"/>
</svg>
