<svg width="23" height="22" viewBox="0 0 23 22" fill="none" xmlns="http://www.w3.org/2000/svg">
<path d="M22.3506 3.32094C22.2365 3.21498 22.0793 3.15122 21.9119 3.14281C21.8511 3.14281 15.8348 2.94368 11.8894 0.125646C11.6659 -0.041882 11.3334 -0.041882 11.11 0.125646C7.16429 2.94367 1.14822 3.14281 1.08733 3.14281C0.919978 3.15122 0.762817 3.21498 0.648778 3.32094C0.539827 3.43128 0.487157 3.57488 0.502663 3.71902C0.502663 3.71902 1.06292 9.31354 1.30648 11.6286C1.53797 13.9124 1.98841 18.166 11.2443 21.9478C11.4051 22.0177 11.5949 22.0175 11.7557 21.9475C21.0111 18.1657 21.4619 13.9122 21.6935 11.6285C21.9371 9.31316 22.4973 3.71884 22.4973 3.71884C22.5128 3.5747 22.4595 3.43128 22.3506 3.32094ZM14.6658 9.49119L11.0853 13.1788C10.9649 13.2963 10.7925 13.3648 10.6105 13.3676H10.5984C10.4159 13.3591 10.2469 13.2826 10.1354 13.1579L8.32089 11.136C8.21025 11.0273 8.15673 10.884 8.17309 10.7403C8.18922 10.5963 8.27396 10.4648 8.4069 10.3764C8.53985 10.2882 8.70932 10.2509 8.87519 10.2737C9.04126 10.2965 9.18864 10.3775 9.28294 10.4969L10.6347 12.0056L13.7279 8.82073C13.9473 8.59931 14.3334 8.57117 14.5926 8.75788C14.7163 8.84648 14.7936 8.97364 14.8071 9.11157C14.821 9.24932 14.7699 9.38595 14.6658 9.49119Z" fill="#B1B6C6"/>
</svg>
