<svg width="19" height="20" viewBox="0 0 19 20" fill="none" xmlns="http://www.w3.org/2000/svg">
<path fill-rule="evenodd" clip-rule="evenodd" d="M9.15102 0.0241856C9.02183 0.0466301 8.82521 0.101373 8.71413 0.145851C8.60305 0.19033 6.98599 1.05814 5.12068 2.0743C1.40871 4.09645 1.32089 4.15298 1.02341 4.71108C0.730719 5.26028 0.741166 5.06371 0.741166 10.012C0.741166 14.9603 0.730719 14.7637 1.02341 15.3129C1.32098 15.8713 1.40976 15.9284 5.10138 17.9368C6.95611 18.9459 8.57622 19.8175 8.70167 19.8737C9.04998 20.0298 9.8276 20.0438 10.2157 19.9011C10.371 19.844 12.0224 18.9659 13.8855 17.9497C17.5927 15.9278 17.6783 15.8726 17.9766 15.3129C18.2693 14.7637 18.2588 14.9603 18.2588 10.012C18.2588 5.06371 18.2693 5.26028 17.9766 4.71108C17.6783 4.15142 17.5926 4.09623 13.8856 2.0743C12.0225 1.05814 10.3711 0.182529 10.2158 0.128471C9.87294 0.00917693 9.46666 -0.0306028 9.15102 0.0241856ZM8.86134 7.16332C7.79541 7.39224 6.8734 8.32273 6.64878 9.39615C6.2154 11.4676 8.04444 13.2966 10.1159 12.8632C11.4261 12.5891 12.418 11.3606 12.418 10.012C12.418 8.16042 10.6843 6.77182 8.86134 7.16332Z" fill="black"/>
</svg>
