<svg width="24" height="24" viewBox="0 0 24 24" fill="none" xmlns="http://www.w3.org/2000/svg">
<path d="M20.0602 3.45984C17.8291 1.22883 14.8814 0 11.76 0C8.63859 0 5.69086 1.22883 3.45984 3.45984C1.22883 5.69086 0 8.63859 0 11.76C0 14.8814 1.22883 17.8291 3.45984 20.0602C5.69086 22.2912 8.63859 23.52 11.76 23.52C14.8814 23.52 17.8291 22.2912 20.0602 20.0602C22.2912 17.8291 23.52 14.8814 23.52 11.76C23.52 8.63859 22.2912 5.69086 20.0602 3.45984ZM16.26 9.06H14.46V7.26H12.66V10.86H16.26V18.06H12.66V19.86H10.86V18.06H7.26V14.46H9.06V16.26H10.86V12.66H7.26V5.46H10.86V3.66H12.66V5.46H16.26V9.06Z" fill="#FFC701"/>
</svg>
