<svg width="20" height="19" viewBox="0 0 20 19" fill="none" xmlns="http://www.w3.org/2000/svg">
<g clip-path="url(#clip0_3_102)">
<path d="M14.124 17.6355H16.2771C17.7162 17.6355 18.8828 16.4699 18.8828 15.0322C18.8828 12.8755 17.1328 11.1272 14.9743 11.1272H14.124" stroke="#666E97" stroke-width="1.11035" stroke-linecap="round" stroke-linejoin="round"/>
<path d="M12.5381 7.87282C14.2902 7.87282 15.7106 6.41588 15.7106 4.61866C15.7106 2.82144 14.2902 1.3645 12.5381 1.3645" stroke="#666E97" stroke-width="1.11035" stroke-linecap="round" stroke-linejoin="round"/>
<path d="M1.11719 15.0322C1.11719 12.8755 2.86705 11.1272 5.02561 11.1272H8.31248C10.471 11.1272 12.2208 12.8755 12.2208 15.0322C12.2208 16.4699 11.0543 17.6355 9.61522 17.6355H3.7228C2.28376 17.6355 1.11719 16.4699 1.11719 15.0322Z" stroke="#666E97" stroke-width="1.11035" stroke-linecap="round" stroke-linejoin="round"/>
<path d="M6.6693 7.87282C8.42141 7.87282 9.84178 6.41588 9.84178 4.61866C9.84178 2.82144 8.42141 1.3645 6.6693 1.3645C4.91719 1.3645 3.49683 2.82144 3.49683 4.61866C3.49683 6.41588 4.91719 7.87282 6.6693 7.87282Z" stroke="#666E97" stroke-width="1.11035" stroke-linecap="round" stroke-linejoin="round"/>
</g>
<defs>
<clipPath id="clip0_3_102">
<rect width="20" height="17.75" fill="white" transform="translate(0 0.625)"/>
</clipPath>
</defs>
</svg>
