<svg width="20" height="21" viewBox="0 0 20 21" fill="none" xmlns="http://www.w3.org/2000/svg">
<g clip-path="url(#clip0_3_87)">
<path d="M18.8847 6.64655C17.4341 9.92178 15.9837 13.1503 14.3518 16.4255C14.0176 17.2983 13.4369 18.0471 12.6852 18.5748C11.9334 19.1025 11.0454 19.3847 10.1363 19.3847C9.22706 19.3847 8.33875 19.1025 7.58703 18.5748C6.83524 18.0471 6.25452 17.2983 5.92036 16.4255L1.11548 6.64655L10.0001 1.61548L18.8847 6.64655Z" stroke="#666E97" stroke-width="1.11058" stroke-linecap="round" stroke-linejoin="round"/>
<path d="M15.0217 8.08902C14.2019 10.1987 13.382 12.2783 12.4596 14.3879C12.2708 14.95 11.9426 15.4324 11.5177 15.7723C11.0927 16.1121 10.5908 16.294 10.0769 16.294C9.56311 16.294 9.06098 16.1121 8.63607 15.7723C8.21117 15.4324 7.88296 14.95 7.69408 14.3879L4.97827 8.08902L10.0769 4.70532L15.0217 8.08902Z" stroke="#666E97" stroke-width="1.11058" stroke-linecap="round" stroke-linejoin="round"/>
</g>
<defs>
<clipPath id="clip0_3_87">
<rect width="20" height="19.25" fill="white" transform="translate(0 0.875)"/>
</clipPath>
</defs>
</svg>
