<svg width="20" height="20" viewBox="0 0 20 20" fill="none" xmlns="http://www.w3.org/2000/svg">
<g clip-path="url(#clip0_3_9)">
<path d="M7.02898 0.625H1.66667C1.09137 0.625 0.625 1.09137 0.625 1.66667V7.02898C0.625 7.60428 1.09137 8.07065 1.66667 8.07065H7.02898C7.60428 8.07065 8.07065 7.60428 8.07065 7.02898V1.66667C8.07065 1.09137 7.60428 0.625 7.02898 0.625Z" stroke="#CEAF43" stroke-width="1.25"/>
<path d="M7.02898 11.9294H1.66667C1.09137 11.9294 0.625 12.3958 0.625 12.9711V18.3334C0.625 18.9087 1.09137 19.3751 1.66667 19.3751H7.02898C7.60428 19.3751 8.07065 18.9087 8.07065 18.3334V12.9711C8.07065 12.3958 7.60428 11.9294 7.02898 11.9294Z" stroke="#88701B" stroke-width="1.25"/>
<path d="M18.3334 0.625H12.9711C12.3958 0.625 11.9294 1.09137 11.9294 1.66667V7.02898C11.9294 7.60428 12.3958 8.07065 12.9711 8.07065H18.3334C18.9087 8.07065 19.3751 7.60428 19.3751 7.02898V1.66667C19.3751 1.09137 18.9087 0.625 18.3334 0.625Z" stroke="#FFC701" stroke-width="1.25"/>
<path d="M18.3334 11.9294H12.9711C12.3958 11.9294 11.9294 12.3958 11.9294 12.9711V18.3334C11.9294 18.9087 12.3958 19.3751 12.9711 19.3751H18.3334C18.9087 19.3751 19.3751 18.9087 19.3751 18.3334V12.9711C19.3751 12.3958 18.9087 11.9294 18.3334 11.9294Z" stroke="#CEAF43" stroke-width="1.25"/>
</g>
<defs>
<clipPath id="clip0_3_9">
<rect width="20" height="20" fill="white"/>
</clipPath>
</defs>
</svg>
