<svg width="20" height="21" viewBox="0 0 20 21" fill="none" xmlns="http://www.w3.org/2000/svg">
<g clip-path="url(#clip0_3_93)">
<path d="M17.9186 12.2451C17.9186 13.8651 17.3624 15.4188 16.3724 16.5643C15.3824 17.7098 14.0395 18.3533 12.6394 18.3533" stroke="#666E97" stroke-width="1.19982" stroke-miterlimit="10"/>
<path d="M2.08105 7.88215C2.08105 6.96482 2.28606 6.05649 2.68432 5.20908C3.08258 4.36167 3.66629 3.59182 4.4021 2.9435C5.1379 2.29518 6.01137 1.78113 6.97257 1.43072C7.93376 1.08033 8.96383 0.900444 10.0038 0.901371C12.103 0.901371 14.1162 1.63685 15.6005 2.94601C17.0848 4.25516 17.9187 6.03073 17.9187 7.88215" stroke="#666E97" stroke-width="1.19982" stroke-miterlimit="10"/>
<path d="M5.13131 6.13696C5.48917 6.13696 5.83237 6.26186 6.08542 6.48417C6.33847 6.70647 6.48063 7.00798 6.48063 7.32238V12.8049C6.48063 13.1194 6.33847 13.4208 6.08542 13.6431C5.83237 13.8655 5.48917 13.9903 5.13131 13.9903C4.61523 13.9903 4.1042 13.901 3.62741 13.7275C3.15061 13.554 2.71738 13.2997 2.35245 12.9791C1.98753 12.6585 1.69805 12.2779 1.50056 11.8591C1.30306 11.4402 1.20142 10.9912 1.20142 10.5378V9.58948C1.20142 8.67386 1.61546 7.79566 2.35245 7.14818C3.08945 6.50071 4.08903 6.13696 5.13131 6.13696Z" stroke="#666E97" stroke-width="1.19982" stroke-miterlimit="10"/>
<path d="M14.8689 13.9906C14.5111 13.9906 14.1678 13.8657 13.9148 13.6434C13.6618 13.4211 13.5195 13.1195 13.5195 12.8052V7.32265C13.5195 7.00825 13.6618 6.70671 13.9148 6.4844C14.1678 6.26209 14.5111 6.13721 14.8689 6.13721C15.9112 6.13721 16.9108 6.50099 17.6477 7.14846C18.3847 7.79593 18.7987 8.67412 18.7987 9.58974V10.5529C18.7943 11.4659 18.3783 12.3404 17.6418 12.9846C16.9053 13.6289 15.9083 13.9906 14.8689 13.9906Z" stroke="#666E97" stroke-width="1.19982" stroke-miterlimit="10"/>
<path d="M11.3104 17.4807H10.4494C9.71531 17.4807 9.12012 18.0667 9.12012 18.7896C9.12012 19.5125 9.71531 20.0985 10.4494 20.0985H11.3104C12.0445 20.0985 12.6396 19.5125 12.6396 18.7896C12.6396 18.0667 12.0445 17.4807 11.3104 17.4807Z" stroke="#666E97" stroke-width="1.19982" stroke-miterlimit="10"/>
</g>
<defs>
<clipPath id="clip0_3_93">
<rect width="20" height="20.7969" fill="white" transform="translate(0 0.101562)"/>
</clipPath>
</defs>
</svg>
