<svg width="16" height="16" viewBox="0 0 16 16" fill="none" xmlns="http://www.w3.org/2000/svg">
<path fill-rule="evenodd" clip-rule="evenodd" d="M10.6017 2.49323C8.51171 0.388628 5.17427 0.225693 2.89148 2.11681C0.6087 4.00793 0.127684 7.33418 1.78023 9.80119C3.43277 12.2682 6.67803 13.0686 9.27751 11.6502L12.7172 14.9375C13.0902 15.2936 13.6772 15.2862 14.0414 14.921L14.9242 14.0329C15.292 13.6607 15.292 13.0596 14.9242 12.6873L11.5864 9.32346C12.797 7.0784 12.3964 4.29985 10.6017 2.49323ZM8.89681 8.9405C7.94557 9.89788 6.51466 10.1845 5.27144 9.66664C4.02821 9.14879 3.21756 7.92851 3.21756 6.57491C3.21756 5.22131 4.02821 4.00103 5.27144 3.48319C6.51466 2.96534 7.94557 3.25195 8.89681 4.20933C10.1917 5.51741 10.1917 7.63241 8.89681 8.9405Z" fill="#B1B6C6"/>
</svg>
