<svg width="14" height="14" viewBox="0 0 14 14" fill="none" xmlns="http://www.w3.org/2000/svg">
<path d="M13.8244 3.02718C13.8274 2.99119 13.8274 2.955 13.8244 2.919C13.8244 1.83718 10.9989 0.952637 7.50528 0.952637C4.01164 0.952637 1.21164 1.84355 1.21164 2.92536C1.20822 2.97197 1.20822 3.01876 1.21164 3.06536L1.18619 3.02718V4.64991C1.18619 4.99991 1.57437 5.38173 2.25528 5.73173C2.25528 5.73173 3.92892 6.73718 7.51164 6.77536C9.0248 6.79443 10.5305 6.55998 11.9662 6.08173C13.1244 5.67446 13.818 5.15264 13.818 4.68809V3.059C13.8209 3.04002 13.8209 3.02071 13.818 3.00173C13.8219 3.00968 13.824 3.01835 13.8244 3.02718ZM2.78346 2.58809C3.24801 1.95173 5.18892 1.49991 7.51164 1.49991C9.83437 1.49991 11.8262 1.97718 12.2589 2.60718C12.3147 2.68294 12.3458 2.77404 12.348 2.86809C12.348 2.86809 12.348 3.10991 12.348 3.129C12.2701 3.05291 12.1848 2.9847 12.0935 2.92536C11.4126 2.44173 9.61164 2.16173 7.52437 2.16173C5.4371 2.16173 3.70619 2.41627 3.00619 2.88718C2.8883 2.94799 2.78261 3.02996 2.69437 3.129V2.86809C2.69473 2.76784 2.72582 2.67011 2.78346 2.58809ZM12.6598 6.699V8.32173C12.6598 8.78627 11.9726 9.30809 10.808 9.72173C9.37278 10.2014 7.86651 10.4338 6.35346 10.409C2.74528 10.3708 1.07164 9.39082 1.07164 9.39082C0.390734 9.02173 0.00255185 8.63991 0.00255185 8.28991V6.699C-0.000328078 6.68002 -0.000328078 6.66071 0.00255185 6.64173C-0.000850617 6.60787 -0.000850617 6.57376 0.00255185 6.53991C0.00255185 6.209 0.365279 5.81445 0.988915 5.509V5.57264C0.988915 5.94173 1.41528 6.34264 2.16619 6.70536C2.16619 6.70536 3.80801 7.58355 7.32073 7.69173C8.835 7.73505 10.3445 7.50216 11.7753 7.00446C12.0631 6.90495 12.3437 6.78588 12.6153 6.64809C12.6071 6.70965 12.5899 6.76968 12.5644 6.82627C12.5951 6.77148 12.6206 6.71396 12.6407 6.65445L12.6598 6.699ZM14.0026 10.2881V11.879C14.0026 12.229 13.6144 12.6108 12.9335 12.9608C12.9335 12.9608 11.2598 13.9599 7.67073 13.9981C6.15768 14.0229 4.65141 13.7905 3.21619 13.3108C2.03255 12.9035 1.34528 12.3817 1.34528 11.9363V10.2308C1.36181 10.2764 1.38093 10.321 1.40255 10.3645C1.6558 10.4921 1.91729 10.6026 2.18528 10.6954C3.61675 11.1903 5.12574 11.4231 6.63982 11.3826C10.1526 11.2681 11.7944 10.3963 11.7944 10.3963C12.5389 10.0335 12.9716 9.63264 12.9716 9.26355V9.21264C13.608 9.51809 13.9516 9.849 13.9516 10.2626V10.2245C13.973 10.2418 13.9904 10.2635 14.0026 10.2881Z" fill="#FFC701"/>
</svg>
