<svg width="16" height="16" viewBox="0 0 16 16" fill="none" xmlns="http://www.w3.org/2000/svg">
<path d="M13.6464 2.35364C12.1287 0.835938 10.1234 0 8 0C5.87659 0 3.87133 0.835938 2.35364 2.35364C0.835938 3.87133 0 5.87659 0 8C0 10.1234 0.835938 12.1287 2.35364 13.6464C3.87133 15.1641 5.87659 16 8 16C10.1234 16 12.1287 15.1641 13.6464 13.6464C15.1641 12.1287 16 10.1234 16 8C16 5.87659 15.1641 3.87133 13.6464 2.35364ZM11.0612 6.16327H9.83673V4.93878H8.61224V7.38775H11.0612V12.2857H8.61224V13.5102H7.38775V12.2857H4.93878V9.83673H6.16327V11.0612H7.38775V8.61224H4.93878V3.71429H7.38775V2.4898H8.61224V3.71429H11.0612V6.16327Z" fill="#3BC117" fill-opacity="0.7"/>
</svg>
