<svg width="22" height="22" viewBox="0 0 22 22" fill="none" xmlns="http://www.w3.org/2000/svg">
<path fill-rule="evenodd" clip-rule="evenodd" d="M12.0322 0.0365145C11.8542 0.0883548 4.11013 3.90189 4.01758 3.98326C3.99514 4.00299 4.23058 4.01915 4.5408 4.01915H5.10481L9.46047 2.8325C11.856 2.17985 13.8319 1.63119 13.8511 1.61322C13.8704 1.59525 13.7681 1.33777 13.6238 1.041C13.3419 0.461081 13.1655 0.252516 12.8327 0.105463C12.5868 -0.00316104 12.2639 -0.0309726 12.0322 0.0365145ZM12.2041 2.8481L8.01307 3.99766L10.5848 4.00875C11.9992 4.01485 14.2935 4.01485 15.6832 4.00875L18.2098 3.99766L18.0648 3.46034C17.9849 3.16482 17.8818 2.79587 17.8355 2.64044C17.6649 2.06757 17.2626 1.73917 16.699 1.71277C16.4139 1.69945 16.1381 1.76908 12.2041 2.8481ZM0.838558 4.9494C0.686261 4.9963 0.55881 5.08321 0.379604 5.26242C-0.0406209 5.68264 -0.00631853 4.96221 0.00653409 13.091L0.0177963 20.2031L0.118167 20.3966C0.25903 20.668 0.487024 20.8902 0.743948 21.0065L0.963474 21.1058H10.3773C19.2215 21.1058 19.801 21.1013 19.956 21.0312C20.242 20.9019 20.4459 20.707 20.5837 20.4311L20.7152 20.1679V18.3062V16.4445L16.8573 16.4323L12.9994 16.4201L12.7449 16.3233C12.2093 16.1197 11.8057 15.7799 11.5665 15.3312C11.3162 14.8617 11.3014 14.7327 11.3017 13.0263C11.3018 12.1743 11.3208 11.3611 11.3438 11.2192C11.4383 10.6381 11.8799 10.027 12.4095 9.74476C12.9156 9.47503 12.8364 9.47963 16.9665 9.47894L20.7186 9.4783L20.7062 7.59768C20.6949 5.8946 20.6866 5.70396 20.6177 5.57793C20.4894 5.3431 20.282 5.13673 20.0528 5.01581L19.834 4.90035L10.4417 4.8924C2.17029 4.88539 1.0243 4.89219 0.838558 4.9494ZM13.0853 10.3955C12.696 10.5092 12.4048 10.7722 12.2639 11.1374C12.1893 11.3308 12.1826 11.4824 12.1826 12.9816C12.1826 14.5518 12.1862 14.6226 12.2732 14.8107C12.4055 15.0967 12.6074 15.3049 12.8841 15.4408L13.1283 15.5607H17.083C21.0317 15.5607 21.0379 15.5606 21.2363 15.4689C21.5207 15.3373 21.7639 15.1005 21.8814 14.8404C21.9818 14.6184 21.9835 14.5919 21.996 13.0317C22.0106 11.2184 21.9996 11.1355 21.6993 10.7943C21.6013 10.683 21.422 10.5396 21.3008 10.4757L21.0806 10.3595L17.1689 10.3524C14.2948 10.3472 13.2117 10.3586 13.0853 10.3955ZM14.6205 12.2783C14.403 12.4175 14.3534 12.5555 14.3534 13.021C14.3534 13.4168 14.3577 13.4348 14.4864 13.5814C14.6552 13.7737 14.8591 13.834 15.2694 13.8133C15.8027 13.7864 15.9867 13.5785 15.9867 13.0031C15.9867 12.6226 15.9067 12.4285 15.6903 12.2839C15.565 12.2002 15.489 12.1865 15.153 12.1871C14.8295 12.1877 14.7373 12.2035 14.6205 12.2783Z" fill="white"/>
</svg>
