<svg width="20" height="20" viewBox="0 0 20 20" fill="none" xmlns="http://www.w3.org/2000/svg">
<g clip-path="url(#clip0_11_192)">
<path d="M7.02898 0.625H1.66667C1.09137 0.625 0.625 1.09137 0.625 1.66667V7.02898C0.625 7.60428 1.09137 8.07065 1.66667 8.07065H7.02898C7.60428 8.07065 8.07065 7.60428 8.07065 7.02898V1.66667C8.07065 1.09137 7.60428 0.625 7.02898 0.625Z" stroke="#3B436B" stroke-width="1.25"/>
<path d="M7.02898 11.9294H1.66667C1.09137 11.9294 0.625 12.3958 0.625 12.9711V18.3334C0.625 18.9087 1.09137 19.3751 1.66667 19.3751H7.02898C7.60428 19.3751 8.07065 18.9087 8.07065 18.3334V12.9711C8.07065 12.3958 7.60428 11.9294 7.02898 11.9294Z" stroke="#2D3660" stroke-width="1.25"/>
<path d="M18.3335 0.625H12.9712C12.3959 0.625 11.9295 1.09137 11.9295 1.66667V7.02898C11.9295 7.60428 12.3959 8.07065 12.9712 8.07065H18.3335C18.9088 8.07065 19.3752 7.60428 19.3752 7.02898V1.66667C19.3752 1.09137 18.9088 0.625 18.3335 0.625Z" stroke="#4D5B97" stroke-width="1.25"/>
<path d="M18.3335 11.9294H12.9712C12.3959 11.9294 11.9295 12.3958 11.9295 12.9711V18.3334C11.9295 18.9087 12.3959 19.3751 12.9712 19.3751H18.3335C18.9088 19.3751 19.3752 18.9087 19.3752 18.3334V12.9711C19.3752 12.3958 18.9088 11.9294 18.3335 11.9294Z" stroke="#3B436B" stroke-width="1.25"/>
</g>
<defs>
<clipPath id="clip0_11_192">
<rect width="20" height="20" fill="white"/>
</clipPath>
</defs>
</svg>
