<svg width="20" height="20" viewBox="0 0 20 20" fill="none" xmlns="http://www.w3.org/2000/svg">
<path fill-rule="evenodd" clip-rule="evenodd" d="M9.12824 0.0154853C9.06107 0.0247661 8.79547 0.0611973 8.53801 0.096448C8.01124 0.168537 7.19339 0.369092 6.64522 0.560569C6.44373 0.630948 5.98579 0.831706 5.62759 1.00666C4.52777 1.54393 3.68623 2.15573 2.81807 3.0492C2.01752 3.87308 1.51318 4.59079 1.00535 5.62878C0.528932 6.60253 0.257754 7.46234 0.0848786 8.54746C-0.0192046 9.20062 -0.0187569 10.81 0.085652 11.47C0.252788 12.5264 0.539434 13.4261 1.02578 14.4211C1.51335 15.4185 2.05143 16.1766 2.85589 16.9997C3.68631 17.8492 4.54646 18.4736 5.58688 18.9822C6.58273 19.469 7.47756 19.7533 8.54794 19.923C9.19866 20.0261 10.8104 20.0256 11.4688 19.9219C13.1618 19.6555 14.7506 18.9754 16.1295 17.9269C16.582 17.5828 17.3988 16.7795 17.7903 16.2935C18.8906 14.9278 19.597 13.3521 19.8991 11.5896C19.9802 11.1162 19.9929 10.9028 19.9929 10.0046C19.9929 8.83749 19.9299 8.32692 19.6678 7.37051C18.9117 4.61188 16.9833 2.28098 14.4199 1.02717C13.43 0.543025 12.5183 0.251861 11.4891 0.0912784C11.0646 0.025051 9.43711 -0.0272145 9.12824 0.0154853ZM9.24909 0.441262C4.89546 0.777161 1.2795 4.08979 0.542894 8.41708C0.273181 10.0016 0.437915 11.8009 0.988738 13.2869C2.62391 17.698 7.15432 20.2808 11.7628 19.4291C15.5854 18.7227 18.6431 15.708 19.402 11.8974C19.5478 11.1653 19.5815 10.8098 19.5815 10.0046C19.5815 8.96209 19.4761 8.232 19.1806 7.22796C18.2579 4.09268 15.5741 1.51384 12.4105 0.722657C11.2885 0.442035 10.3368 0.357328 9.24909 0.441262ZM9.20965 1.58304C7.70282 1.72344 6.17511 2.3146 4.92888 3.23958C4.44013 3.60231 3.48902 4.56588 3.16443 5.02715C2.33942 6.19954 1.8455 7.41162 1.63221 8.78734C1.53411 9.41994 1.53411 10.5892 1.63221 11.2218C1.92817 13.1307 2.76292 14.7528 4.12727 16.0703C5.58924 17.4821 7.34734 18.2707 9.40243 18.4367C11.3579 18.5946 13.3067 18.033 15.0168 16.8188C15.4524 16.5095 16.4273 15.5418 16.7694 15.0791C17.996 13.4202 18.5988 11.3684 18.4367 9.40419C18.2621 7.28788 17.4717 5.55441 16.0075 4.07656C15.1958 3.25729 14.4392 2.72324 13.49 2.2997C12.1324 1.69388 10.6621 1.4477 9.20965 1.58304ZM10.2069 3.52423V5.06277L10.5834 5.11068C10.9073 5.15191 11.4496 5.27179 11.6365 5.34355C11.6793 5.35996 11.8411 5.01026 12.2733 3.96735C12.592 3.19831 12.8528 2.5502 12.8528 2.52704C12.8528 2.47624 12.3376 2.30186 11.8464 2.18638C11.4195 2.08604 10.7173 1.98757 10.4206 1.98647L10.2069 1.98566V3.52423ZM6.27887 2.89396C5.66215 3.21899 4.84067 3.79883 4.57141 4.09911L4.49216 4.18749L5.5684 5.2643C6.16034 5.85656 6.65523 6.34112 6.66817 6.34112C6.68116 6.34112 6.8163 6.24188 6.9685 6.12058C7.12069 5.99928 7.39631 5.81525 7.58099 5.71161L7.91673 5.52319L7.63492 4.84329C7.47996 4.46933 7.21472 3.82908 7.04547 3.42052C6.87626 3.01196 6.72614 2.67805 6.71185 2.6785C6.6976 2.67899 6.50275 2.77595 6.27887 2.89396ZM14.7252 5.58811C13.9013 6.41235 13.6565 6.67995 13.6875 6.7224C13.7097 6.75297 13.8315 6.91323 13.9581 7.07853C14.0847 7.24384 14.2558 7.50276 14.3384 7.65394C14.421 7.80508 14.5029 7.91987 14.5205 7.90904C14.538 7.89817 15.171 7.63282 15.9271 7.31939C16.6833 7.00592 17.3095 6.7419 17.3187 6.73266C17.3425 6.70889 17.0268 6.0898 16.8293 5.77299C16.5304 5.29328 15.9106 4.50938 15.8304 4.50938C15.8155 4.50938 15.3182 4.99483 14.7252 5.58811ZM9.6574 5.51476C8.63464 5.60757 7.44963 6.16674 6.74869 6.88726C6.54899 7.09254 6.40156 7.12799 6.28465 6.99879C6.24732 6.95752 6.11165 6.87053 5.98323 6.80544C5.77372 6.69928 5.70993 6.68719 5.363 6.68776C5.03524 6.68829 4.94529 6.70364 4.77278 6.78855C4.51405 6.91588 4.25753 7.17167 4.12365 7.43593C4.05523 7.5709 3.98603 7.6506 3.92363 7.66628C3.85817 7.68268 3.62961 7.60611 3.19671 7.4227C2.84937 7.27559 2.54665 7.15522 2.52394 7.15522C2.46972 7.15522 2.24108 7.87619 2.1453 8.34911C2.05379 8.80093 1.98447 9.34288 1.98447 9.60665V9.80106H3.68912C5.00435 9.80106 5.40289 9.8127 5.43375 9.85194C5.45577 9.87995 5.49456 10.1135 5.52 10.3709C5.68209 12.0129 6.60936 13.3609 8.05183 14.0515C10.3068 15.1311 12.9768 14.1985 14.0503 11.9562C14.6597 10.6833 14.6556 9.31024 14.0384 8.03039C13.3709 6.64596 12.0278 5.70262 10.4783 5.52982C10.0954 5.48712 9.98443 5.48509 9.6574 5.51476ZM11.7798 6.85303C11.3714 6.98312 11.0617 7.43747 11.0617 7.90656C11.0617 8.05859 11.0371 8.09771 10.7825 8.35041L10.5032 8.62757L10.3449 8.58361C10.0069 8.48974 9.54168 8.56456 9.23395 8.76218C8.72257 9.09063 8.43698 9.7639 8.57558 10.3143L8.62402 10.5067L8.34804 10.7848C8.09652 11.0383 8.05732 11.0629 7.90537 11.0629C7.41406 11.0629 6.97517 11.3751 6.84712 11.8156C6.61436 12.6162 7.3841 13.3959 8.17899 13.1648C8.61295 13.0386 8.88506 12.6865 8.9313 12.1913C8.95589 11.9276 8.95898 11.9221 9.22874 11.6544L9.50126 11.384L9.69367 11.4324C10.1285 11.5419 10.6786 11.378 11.0282 11.0349C11.3715 10.6979 11.5414 10.1327 11.4312 9.69486L11.3828 9.50245L11.6588 9.22435C11.8862 8.99514 11.9578 8.94625 12.0661 8.94625C12.6415 8.94625 13.0771 8.61035 13.1825 8.08542C13.3372 7.31536 12.5366 6.61197 11.7798 6.85303ZM5.11853 7.07113C4.81145 7.16454 4.51585 7.43491 4.42719 7.70344C4.34415 7.95512 4.39019 8.33616 4.53127 8.56436C4.94842 9.23905 5.97558 9.15478 6.29031 8.42006C6.32454 8.34007 6.35316 8.16435 6.35389 8.02957C6.35621 7.59337 6.07608 7.21486 5.65767 7.08895C5.4563 7.02834 5.27854 7.02244 5.11853 7.07113ZM9.57599 9.0643C9.19959 9.23896 8.98756 9.57775 8.98756 10.0046C8.98756 10.4314 9.19959 10.7702 9.57599 10.9449C9.79299 11.0455 10.2114 11.0462 10.4317 10.9461C11.2251 10.5857 11.2251 9.42352 10.4317 9.06312C10.2114 8.96302 9.79299 8.96363 9.57599 9.0643ZM14.8973 10.5846C14.8561 10.9086 14.7362 11.4508 14.6644 11.6378C14.6479 11.6808 14.9859 11.8373 16.0016 12.2568C16.7491 12.5656 17.3971 12.8277 17.4414 12.8393C17.5122 12.8578 17.5377 12.8114 17.6495 12.4603C17.8559 11.8124 18.0223 10.8936 18.0223 10.4025V10.2081H16.4838H14.9452L14.8973 10.5846ZM4.10497 12.6744C3.33466 12.9966 2.69657 13.268 2.68696 13.2777C2.65659 13.308 3.07171 14.0812 3.31154 14.441C3.55162 14.8011 3.94581 15.3002 4.09793 15.4366L4.1863 15.5158L5.26311 14.4396C5.85537 13.8476 6.33993 13.3495 6.33993 13.3326C6.33993 13.3156 6.23971 13.1781 6.11719 13.027C5.99471 12.8759 5.80934 12.6011 5.70525 12.4164C5.60113 12.2317 5.51361 12.0824 5.51072 12.0846C5.50783 12.0869 4.87523 12.3523 4.10497 12.6744ZM13.0156 13.8939C12.8701 14.0147 12.6001 14.1985 12.4157 14.3025C12.2312 14.4064 12.0889 14.5054 12.0995 14.5225C12.1101 14.5396 12.3752 15.1722 12.6886 15.9283C13.0021 16.6845 13.2665 17.3111 13.2762 17.3208C13.3067 17.3513 14.0939 16.93 14.4479 16.6937C14.8123 16.4505 15.2541 16.1014 15.4155 15.9293L15.5155 15.8225L14.4388 14.7453C13.8467 14.1528 13.3437 13.6694 13.3212 13.6712C13.2986 13.6729 13.1611 13.7731 13.0156 13.8939ZM7.73347 16.0418C7.41479 16.8109 7.15403 17.4582 7.15403 17.4804C7.15403 17.522 7.63667 17.6895 8.07446 17.7998C8.48367 17.9029 8.98178 17.9816 9.403 18.0095L9.79987 18.0358V16.4911V14.9464L9.42335 14.8985C9.09946 14.8573 8.55722 14.7374 8.37031 14.6656C8.32748 14.6492 8.16568 14.9989 7.73347 16.0418Z" fill="url(#paint0_linear_11_220)"/>
<defs>
<linearGradient id="paint0_linear_11_220" x1="9.99999" y1="0" x2="9.99999" y2="20" gradientUnits="userSpaceOnUse">
<stop stop-color="#FFC701"/>
<stop offset="0.518839" stop-color="#CEAF43"/>
<stop offset="1" stop-color="#88701B"/>
</linearGradient>
</defs>
</svg>
